# xmcd CD database file
#
# Track frame offsets:
#	150
#	25666
#	42020
#	54477
#	67897
#	86422
#	99300
#	109925
#	123339
#	135244
#	147063
#	165207
#	178665
#	191383
#	211702
#	226377
#	239881
#	254399
#	267610
#
# Disc length: 3854 seconds
#
# Revision: 0
# Processed by: cddbd v1.5.2PL0 Copyright (c) Steve Scherf et al.
# Submitted via: CDex 1.70beta2
#
DISCID=f80f0c13
DTITLE=Felipe e Falcão - 20 Anos - Ao Vivo
DYEAR=2006
DGENRE=Sertanejo
TTITLE0=Pout-Pourri de Pagodes
TTITLE1=Deixa Eu Te Amar Por Favor
TTITLE2=Nóis é Simprão de Tudo
TTITLE3=Cadê Ela
TTITLE4=Vai Por Aí
TTITLE5=Vou Mandar o Paulo Atrás
TTITLE6=Comitiva dos Solteiros
TTITLE7=Grito de Amor
TTITLE8=O de Tonto Não Tem Dono
TTITLE9=Homem Tem Que Ter Mulher
TTITLE10=Herói Sem Medalha
TTITLE11=Dá Briga
TTITLE12=O Saco Ficou de Fora
TTITLE13=Pra Sempre o Seu Retrato
TTITLE14=Melhor Amiga Sua
TTITLE15=Karatê
TTITLE16=Hoje Não é Nosso Dia
TTITLE17=Quem Quer Verdura
TTITLE18=Que Pena
EXTD=YEAR: 2006
EXTT0=
EXTT1=
EXTT2=
EXTT3=
EXTT4=
EXTT5=
EXTT6=
EXTT7=
EXTT8=
EXTT9=
EXTT10=
EXTT11=
EXTT12=
EXTT13=
EXTT14=
EXTT15=
EXTT16=
EXTT17=
EXTT18=
PLAYORDER=
